<svg xmlns="http://www.w3.org/2000/svg" viewBox="0 0 1125 262"><defs><style>.cls-1{fill:#800a1e;}.cls-2{fill:#ce1131;}.cls-3{fill:#d64059;}.cls-4{fill:#a5a5a4;}.cls-5{fill:#1d1d1b;}</style></defs><g id="Capa_2" data-name="Capa 2"><g id="Capa_17" data-name="Capa 17"><polygon class="cls-1" points="0 24 28 1 28 238 1125 238 1125 262 0 262 0 24"/><path class="cls-2" d="M28,0H373.78c47,0,123.89,11.69,187.5,75.3,64.54,64.55,147.5,62.54,187.5,62.54H1125V238H28Z"/><path class="cls-3" d="M1125,138.84H748.78c-40,0-123,2-187.5-62.54C497.67,12.69,420.78,1,373.78,1H28V21H353.78c47,0,123.89,11.69,187.5,75.3,64.54,64.55,147.5,62.54,187.5,62.54h376V238h20l.19-79.16h0Z"/><rect class="cls-4" x="62" y="138" width="115" height="31" rx="12"/><path class="cls-5" d="M165,170.5H74A13.52,13.52,0,0,1,60.5,157v-7A13.52,13.52,0,0,1,74,136.5h91A13.52,13.52,0,0,1,178.5,150v7A13.52,13.52,0,0,1,165,170.5Zm-91-31A10.51,10.51,0,0,0,63.5,150v7A10.51,10.51,0,0,0,74,167.5h91A10.51,10.51,0,0,0,175.5,157v-7A10.51,10.51,0,0,0,165,139.5Z"/><rect class="cls-4" x="204" y="138" width="269" height="31" rx="12"/><path class="cls-5" d="M461,170.5H216A13.52,13.52,0,0,1,202.5,157v-7A13.52,13.52,0,0,1,216,136.5H461A13.52,13.52,0,0,1,474.5,150v7A13.52,13.52,0,0,1,461,170.5Zm-245-31A10.51,10.51,0,0,0,205.5,150v7A10.51,10.51,0,0,0,216,167.5H461A10.51,10.51,0,0,0,471.5,157v-7A10.51,10.51,0,0,0,461,139.5Z"/><rect class="cls-5" x="337" y="137.5" width="3" height="31"/><polygon class="cls-5" points="1125 238 1125 262 1101 262 1125 238"/></g></g></svg>