<svg xmlns="http://www.w3.org/2000/svg" viewBox="0 0 1125 275"><defs><style>.cls-1{fill:#890a1e;}.cls-2{fill:#ce1131;}.cls-3{fill:#fbfbfb;}.cls-4{fill:#0d1046;}.cls-5{fill:#474da3;}.cls-6{fill:#a3a6d1;}.cls-7{fill:#eba0ad;}.cls-8{fill:#9b0d25;}.cls-9{fill:#e27083;}.cls-10{fill:#d64059;}.cls-11{fill:#1d1d1b;}.cls-12{fill:#383838;}</style></defs><g id="Capa_2" data-name="Capa 2"><g id="Capa_17" data-name="Capa 17"><polygon class="cls-1" points="1125 0 0 0 0 275 375 275 750 128 1125 128 1125 89.81 1125 0"/><polygon class="cls-2" points="1125 0 28 0 28 234 373 234 748 87 1125 87 1125 0"/><circle class="cls-3" cx="323" cy="127" r="78"/><circle class="cls-4" cx="323" cy="127" r="70"/><circle class="cls-5" cx="322.99" cy="109.99" r="53"/><circle class="cls-6" cx="323.04" cy="80.03" r="17"/><circle class="cls-7" cx="486" cy="77" r="28"/><circle class="cls-8" cx="486" cy="77" r="25.13"/><circle class="cls-9" cx="486" cy="73.9" r="14"/><polygon class="cls-10" points="1125 0 1125 0 28 0 28 20 1104.78 20.21 1104.78 87 1124.78 87 1124.95 20.22 1125 20.22 1125 0 1125 0 1125 0"/><polygon class="cls-11" points="0 28 0 0 28 0 0 28"/><rect x="881" y="38" width="188" height="30" rx="12"/><path class="cls-12" d="M1057,73H893a17,17,0,0,1-17-17V50a17,17,0,0,1,17-17h164a17,17,0,0,1,17,17v6A17,17,0,0,1,1057,73ZM893,43a7,7,0,0,0-7,7v6a7,7,0,0,0,7,7h164a7,7,0,0,0,7-7V50a7,7,0,0,0-7-7Z"/></g></g></svg>