<svg xmlns="http://www.w3.org/2000/svg" viewBox="0 0 417.68 129.81"><defs><style>.cls-1{fill:#eec3cc;}</style></defs><g id="Capa_2" data-name="Capa 2"><g id="Capa_17" data-name="Capa 17"><path class="cls-1" d="M287.11,107.32c-.18,2.62-.31,4.41-.53,7.6-8.09-.94-16-1.88-23.93-2.73a8.47,8.47,0,0,0-2.34.59c-13.08,2.69-18.7,1-28-8.21-18.29,9.3-18.29,9.3-45.06,8.57v16.67l-39.44-29.37v25.43H120.87V88.16c-4.71,9-10.85,16.47-19.78,21.28-18.21,9.81-35.61,1.62-39.54-18.61C59,77.48,63,66.53,73.78,58.07c10-7.81,21-11.27,32.91-5.6C112,55,116.23,59.8,120.27,63V35.53l-8.69.88c0-11,.83-12.17,10.15-15.8l19.75-7.72V73.35c4.67-2.26,8.89-3.76,12.49-6.16,7.8-5.18,15.95-6.07,24.92-4a10.69,10.69,0,0,0,7.56-1.8c15.1-10.68,35.1-10.78,47.14.5L219.66,78.53,205.51,95.47c7.71-.08,11.85-4.17,15.79-8.86,1-1.25,2.89-1.85,5.32-3.32.71-18.51,17.58-32,37-32.93,0-11.86.16-23.76-.09-35.65-.08-3.8,1-5.86,4.65-7.23,5.65-2.11,11.1-4.77,17.29-7.48V70.83c7.2-10,15.75-15.16,26.27-16.89,10.72-1.78,20.51.24,29.64,7.55L313,95.44c9.56-.11,13.79-6.39,18.52-12.48,3.74,4.51,7.2,8.73,10.72,12.9,3,3.59,0,5.67-2.16,7.52-8.69,7.56-19.3,10-30.46,10.65C301.73,114.49,294.27,113,287.11,107.32ZM107.38,67.86c-4,1.5-9.51,5.28-11.53,3.93-5.25-3.5-.38-8,2.22-12.22-10.38,2.89-16.4,9.72-14.88,16.25,1.2,5.14,8.28,9.58,13.73,8.61C103.73,83.23,108.11,75.54,107.38,67.86Zm153.76-5.79c-7.51,1.7-12.78,7.94-11.9,13.78.81,5.4,7,9.19,14.18,8.45,0-3.14,1.33-7.86-.24-9.2C258.38,71,259.94,66.71,261.14,62.07ZM158.81,87.71l15.45,11.18c.62-8.15,1.22-16.07,1.86-24.43ZM209,70.89c-5.68-2.45-10.38-1.72-13.75,1.84-4.14,4.36-4.67,10.57-1.2,16.68Zm107.48-.06c-6-2.49-10.82-1.57-14.15,2.42-3.82,4.56-4.14,10.47-.69,16.13Z"/><path class="cls-1" d="M388.22,84.84l26.08,34c-9.42,0-17.8.16-26.17-.17-1.31-.05-2.69-2.21-3.78-3.59-3.13-4-6.13-8-9.71-12.72-3.72,4.79-7,9.26-10.6,13.49-1.16,1.36-3.08,2.87-4.71,2.94-7.67.31-15.36.13-24.4.13,7-9.19,13.27-17.51,19.63-25.74s6.49-8.3-.17-16.76L331.45,47.25c9.75,0,18.36-.14,27,.14,1.4,0,3,1.76,4.06,3.08,4,5.11,7.74,10.38,12.08,16.26,4.12-5.55,7.71-10.89,11.88-15.75a10.91,10.91,0,0,1,6.79-3.58c7.68-.45,15.4-.17,24.45-.17Z"/><path class="cls-1" d="M38.09,114.72,14.2,46.35,8.62,51.07,0,27.58c17.44-5.86,34.46-12.52,53.21-10.32a25.2,25.2,0,0,1,10.55,4.27c8.07,5.4,9.88,12.76,4.06,20.9A256.47,256.47,0,0,1,46.29,67.87c-2.94,3.13-3.59,5.65-2.38,9.5,2.3,7.31,3.92,14.85,6.46,22.07,1.53,4.33.39,6.78-3.25,9C44.21,110.17,41.51,112.31,38.09,114.72Zm.29-56.36,14-18.19a39.81,39.81,0,0,0-5.12-1.37c-10.89-.87-13.67,2.38-10.88,12.63C36.86,53.17,37.38,54.91,38.38,58.36Z"/><path class="cls-1" d="M181.41,33.37l28.87-16.09c4,6.07,7.76,11.87,12,18.42-11.09,2.14-21.27,4.7-31.6,5.64C188.11,41.58,185,36.62,181.41,33.37Z"/></g></g></svg>